<svg id="Line" height="512" viewBox="0 0 64 64" width="512" xmlns="http://www.w3.org/2000/svg"><path d="m42 33h13v16h-13z" fill="#c4a2fc"/><path d="m60 19h-2.509l-3.656 5.55a1 1 0 0 1 -.835.45h-9a1 1 0 0 1 -.843-.462l-3.53-5.538h-2.627a3 3 0 0 0 -3 3v38a3 3 0 0 0 3 3h23a3 3 0 0 0 3-3v-38a3 3 0 0 0 -3-3zm-7 40h-9a1 1 0 0 1 0-2h9a1 1 0 0 1 0 2zm4-9a1 1 0 0 1 -1 1h-15a1 1 0 0 1 -1-1v-18a1 1 0 0 1 1-1h15a1 1 0 0 1 1 1z" fill="#c4a2fc"/><path d="m52.461 23 2.635-4h-13.097l2.549 4z" fill="#c4a2fc"/><g fill="#151a6a"><path d="m5.588 18a3 3 0 0 0 3 3h32a3 3 0 0 0 3-3v-14a3 3 0 0 0 -3-3h-37.588a2 2 0 0 0 -1.412 3.414l4 4zm-2.595-15h37.6a1 1 0 0 1 1 1v14a1 1 0 0 1 -1 1h-32a1 1 0 0 1 -1-1v-10a1 1 0 0 0 -.293-.707z"/><path d="m12.588 9h24a1 1 0 0 0 0-2h-24a1 1 0 0 0 0 2z"/><path d="m12.588 15h24a1 1 0 0 0 0-2h-24a1 1 0 0 0 0 2z"/><path d="m37 31h-24a1 1 0 0 0 0 2h24a1 1 0 0 0 0-2z"/><path d="m37 37h-24a1 1 0 0 0 0 2h24a1 1 0 0 0 0-2z"/><path d="m48 41.586-4-4v-9.586a3 3 0 0 0 -3-3h-32a3 3 0 0 0 -3 3v14a3 3 0 0 0 3 3h37.586a2 2 0 0 0 1.414-3.414zm-39 1.414a1 1 0 0 1 -1-1v-14a1 1 0 0 1 1-1h32a1 1 0 0 1 1 1v10a1 1 0 0 0 .293.707l4.293 4.293z"/></g></svg>