<svg id="line" height="512" viewBox="0 0 64 64" width="512" xmlns="http://www.w3.org/2000/svg"><g fill="#c4a2fc"><circle cx="56.5" cy="27.5" r="1.5"/><circle cx="42" cy="42" r="7"/><path d="m29.051 41a12.987 12.987 0 0 1 25.9 0h8.049v-17a3 3 0 0 0 -3-3h-36a3 3 0 0 0 -3 3v17zm27.449-17a3.5 3.5 0 1 1 -3.5 3.5 3.5 3.5 0 0 1 3.5-3.5z"/><path d="m54.949 43a12.987 12.987 0 0 1 -25.9 0h-8.049v17a3 3 0 0 0 3 3h36a3 3 0 0 0 3-3v-17z"/><path d="m42 31a11 11 0 1 0 11 11 11.013 11.013 0 0 0 -11-11zm0 20a9 9 0 1 1 9-9 9.01 9.01 0 0 1 -9 9z"/></g><path d="m22.949 13h10.11a9 9 0 1 0 0-2h-10.11a11 11 0 1 0 -11.949 11.949v10.11a9 9 0 1 0 2 0v-10.11a10.946 10.946 0 0 0 6.034-2.5l8.518 8.518a11.017 11.017 0 1 0 1.414-1.414l-8.518-8.518a10.946 10.946 0 0 0 2.501-6.035zm19.051-8a7 7 0 1 1 -7 7 7.009 7.009 0 0 1 7-7zm-30-2a8.988 8.988 0 0 1 8.239 12.608 11.249 11.249 0 0 0 -4.927-3.087 4.5 4.5 0 1 0 -6.624 0 11.249 11.249 0 0 0 -4.927 3.087 8.988 8.988 0 0 1 8.239-12.608zm-2.5 6.5a2.5 2.5 0 1 1 2.5 2.5 2.5 2.5 0 0 1 -2.5-2.5zm-4.663 7.927a9.2 9.2 0 0 1 14.326 0 8.967 8.967 0 0 1 -14.326 0zm14.163 24.573a7 7 0 1 1 -7-7 7.009 7.009 0 0 1 7 7zm17 3a8.981 8.981 0 0 1 -7.163-3.573 9.2 9.2 0 0 1 14.326 0 8.981 8.981 0 0 1 -7.163 3.573zm-2.5-11.5a2.5 2.5 0 1 1 2.5 2.5 2.5 2.5 0 0 1 -2.5-2.5zm11.5 2.5a8.921 8.921 0 0 1 -.761 3.608 11.249 11.249 0 0 0 -4.927-3.087 4.5 4.5 0 1 0 -6.624 0 11.249 11.249 0 0 0 -4.927 3.087 9 9 0 1 1 17.239-3.608z" fill="#151a6a"/></svg>